# xmcd CD database file generated by Grip 3.2.0
# 
# Track frame offsets:
#       183
#       10500
#       32188
#       44995
#       57855
#       71633
#       83773
#       97598
#       112878
#       124013
#       137353
#       148493
#       160913
#       174885
#       186525
#       200958
#       216128
#       228440
#       243175
#       256045
#       268915
#       281975
#       298350
#       312425
# 
# Disc length: 4366 seconds
# 
# Revision: 2
# Processed by: cddbd v1.5.1PL0 Copyright (c) Steve Scherf et al.
# Submitted via: Grip 3.2.0
# 
DISCID=6e110c18
DTITLE=Muddy Waters - The Father Of The Chicago Blues
DYEAR=1990
DGENRE=Blues
TTITLE0=Sugar Sweet
TTITLE1=Twenty Four Hours
TTITLE2=All Aboard
TTITLE3=Hoochie Coochie
TTITLE4=I'm Ready
TTITLE5=Long Distance Call
TTITLE6=I Want To Love Me
TTITLE7=Honry Bee
TTITLE8=Gone To Main Street
TTITLE9=She Moves Me
TTITLE10=I Can't Call Her Sugar
TTITLE11=I Can't Be Satisfied
TTITLE12=Rollin' Stone
TTITLE13=You Gonna Miss Me
TTITLE14=Baby, Please Don't Go
TTITLE15=Standing Around Crying
TTITLE16=Got My Mojo Working
TTITLE17=Still A Fool
TTITLE18=Louisanna Blues
TTITLE19=I Just Want To Make Love To You
TTITLE20=You Can't Lose What You Ain't Never Had
TTITLE21=Blow Wind Blow
TTITLE22=Forty Days And Forty Nights
TTITLE23=Walkin' Thru The Park
EXTD=
EXTT0=
EXTT1=
EXTT2=
EXTT3=
EXTT4=
EXTT5=
EXTT6=
EXTT7=
EXTT8=
EXTT9=
EXTT10=
EXTT11=
EXTT12=
EXTT13=
EXTT14=
EXTT15=
EXTT16=
EXTT17=
EXTT18=
EXTT19=
EXTT20=
EXTT21=
EXTT22=
EXTT23=
PLAYORDER=
